<mxfile host="app.diagrams.net" agent="Mozilla/5.0 (X11; Linux x86_64; rv:142.0) Gecko/20100101 Firefox/142.0" version="28.1.1">
  <diagram name="PÃ¡gina-1" id="wAR5ydkkew6rCzujyNuY">
    <mxGraphModel dx="1188" dy="664" grid="1" gridSize="10" guides="1" tooltips="1" connect="1" arrows="1" fold="1" page="1" pageScale="1" pageWidth="827" pageHeight="1169" math="0" shadow="0">
      <root>
        <mxCell id="0" />
        <mxCell id="1" parent="0" />
        <mxCell id="Wj1_WBslv_tGjD_dMFTz-1" value="Empresa" style="swimlane;fontStyle=1;align=center;verticalAlign=top;childLayout=stackLayout;horizontal=1;startSize=26;horizontalStack=0;resizeParent=1;resizeParentMax=0;resizeLast=0;collapsible=1;marginBottom=0;whiteSpace=wrap;html=1;" vertex="1" parent="1">
          <mxGeometry x="40" y="40" width="160" height="140" as="geometry" />
        </mxCell>
        <mxCell id="Wj1_WBslv_tGjD_dMFTz-2" value="&lt;div&gt;- nombre: String&lt;/div&gt;&lt;div&gt;- cuit: Int&lt;/div&gt;" style="text;strokeColor=none;fillColor=none;align=left;verticalAlign=top;spacingLeft=4;spacingRight=4;overflow=hidden;rotatable=0;points=[[0,0.5],[1,0.5]];portConstraint=eastwest;whiteSpace=wrap;html=1;" vertex="1" parent="Wj1_WBslv_tGjD_dMFTz-1">
          <mxGeometry y="26" width="160" height="34" as="geometry" />
        </mxCell>
        <mxCell id="Wj1_WBslv_tGjD_dMFTz-3" value="" style="line;strokeWidth=1;fillColor=none;align=left;verticalAlign=middle;spacingTop=-1;spacingLeft=3;spacingRight=3;rotatable=0;labelPosition=right;points=[];portConstraint=eastwest;strokeColor=inherit;" vertex="1" parent="Wj1_WBslv_tGjD_dMFTz-1">
          <mxGeometry y="60" width="160" height="10" as="geometry" />
        </mxCell>
        <mxCell id="Wj1_WBslv_tGjD_dMFTz-4" value="&lt;div&gt;+ totalNetos():Int&lt;/div&gt;&lt;div&gt;+ totalBrutos():Int&lt;/div&gt;&lt;div&gt;+ totalRetenciones():Int&lt;/div&gt;&lt;div&gt;+ new(String,Int)&lt;/div&gt;" style="text;strokeColor=none;fillColor=none;align=left;verticalAlign=top;spacingLeft=4;spacingRight=4;overflow=hidden;rotatable=0;points=[[0,0.5],[1,0.5]];portConstraint=eastwest;whiteSpace=wrap;html=1;" vertex="1" parent="Wj1_WBslv_tGjD_dMFTz-1">
          <mxGeometry y="70" width="160" height="70" as="geometry" />
        </mxCell>
        <mxCell id="Wj1_WBslv_tGjD_dMFTz-5" value="Empleado" style="swimlane;fontStyle=1;align=center;verticalAlign=top;childLayout=stackLayout;horizontal=1;startSize=26;horizontalStack=0;resizeParent=1;resizeParentMax=0;resizeLast=0;collapsible=1;marginBottom=0;whiteSpace=wrap;html=1;" vertex="1" parent="1">
          <mxGeometry x="320" y="40" width="160" height="190" as="geometry" />
        </mxCell>
        <mxCell id="Wj1_WBslv_tGjD_dMFTz-6" value="&lt;div&gt;- nombre: String&lt;/div&gt;&lt;div&gt;- direccion: String&lt;/div&gt;&lt;div&gt;- estCivil: String&lt;/div&gt;&lt;div&gt;- fechaNac: Date&lt;/div&gt;&lt;div&gt;- sueldoBasico: Int&lt;/div&gt;" style="text;strokeColor=none;fillColor=none;align=left;verticalAlign=top;spacingLeft=4;spacingRight=4;overflow=hidden;rotatable=0;points=[[0,0.5],[1,0.5]];portConstraint=eastwest;whiteSpace=wrap;html=1;" vertex="1" parent="Wj1_WBslv_tGjD_dMFTz-5">
          <mxGeometry y="26" width="160" height="74" as="geometry" />
        </mxCell>
        <mxCell id="Wj1_WBslv_tGjD_dMFTz-7" value="" style="line;strokeWidth=1;fillColor=none;align=left;verticalAlign=middle;spacingTop=-1;spacingLeft=3;spacingRight=3;rotatable=0;labelPosition=right;points=[];portConstraint=eastwest;strokeColor=inherit;" vertex="1" parent="Wj1_WBslv_tGjD_dMFTz-5">
          <mxGeometry y="100" width="160" height="10" as="geometry" />
        </mxCell>
        <mxCell id="Wj1_WBslv_tGjD_dMFTz-8" value="&lt;div&gt;&lt;i&gt;+ sueldoBruto(): Int&lt;/i&gt;&lt;/div&gt;&lt;div&gt;&lt;i&gt;+ retenciones(): Int&lt;/i&gt;&lt;/div&gt;&lt;div&gt;&lt;div&gt;&lt;u&gt;&lt;i&gt;&lt;/i&gt;&lt;/u&gt;&lt;/div&gt;&lt;div&gt;+ sueldoNeto(): Int&lt;/div&gt;&lt;/div&gt;&lt;div&gt;&lt;i&gt;+ &lt;u&gt;new(String,String,String&lt;/u&gt;&lt;/i&gt;&lt;/div&gt;&lt;div&gt;&lt;u&gt;&lt;i&gt;,Date,Int)&lt;/i&gt;&lt;/u&gt;&lt;/div&gt;" style="text;strokeColor=none;fillColor=none;align=left;verticalAlign=top;spacingLeft=4;spacingRight=4;overflow=hidden;rotatable=0;points=[[0,0.5],[1,0.5]];portConstraint=eastwest;whiteSpace=wrap;html=1;" vertex="1" parent="Wj1_WBslv_tGjD_dMFTz-5">
          <mxGeometry y="110" width="160" height="80" as="geometry" />
        </mxCell>
        <mxCell id="Wj1_WBslv_tGjD_dMFTz-13" value="EmpleadoTemporal" style="swimlane;fontStyle=1;align=center;verticalAlign=top;childLayout=stackLayout;horizontal=1;startSize=26;horizontalStack=0;resizeParent=1;resizeParentMax=0;resizeLast=0;collapsible=1;marginBottom=0;whiteSpace=wrap;html=1;" vertex="1" parent="1">
          <mxGeometry x="220" y="330" width="160" height="140" as="geometry" />
        </mxCell>
        <mxCell id="Wj1_WBslv_tGjD_dMFTz-14" value="&lt;div&gt;- fechaFin: Date&lt;/div&gt;&lt;div&gt;- horasExtra: Int&lt;/div&gt;" style="text;strokeColor=none;fillColor=none;align=left;verticalAlign=top;spacingLeft=4;spacingRight=4;overflow=hidden;rotatable=0;points=[[0,0.5],[1,0.5]];portConstraint=eastwest;whiteSpace=wrap;html=1;" vertex="1" parent="Wj1_WBslv_tGjD_dMFTz-13">
          <mxGeometry y="26" width="160" height="34" as="geometry" />
        </mxCell>
        <mxCell id="Wj1_WBslv_tGjD_dMFTz-15" value="" style="line;strokeWidth=1;fillColor=none;align=left;verticalAlign=middle;spacingTop=-1;spacingLeft=3;spacingRight=3;rotatable=0;labelPosition=right;points=[];portConstraint=eastwest;strokeColor=inherit;" vertex="1" parent="Wj1_WBslv_tGjD_dMFTz-13">
          <mxGeometry y="60" width="160" height="10" as="geometry" />
        </mxCell>
        <mxCell id="Wj1_WBslv_tGjD_dMFTz-16" value="&lt;div&gt;+ sueldoBruto(): Int&lt;/div&gt;&lt;div&gt;+ retenciones(): Int&lt;/div&gt;&lt;div&gt;&lt;div&gt;&lt;div&gt;&lt;i&gt;+&lt;/i&gt; &lt;u&gt;new(String,String,String&lt;/u&gt;&lt;/div&gt;&lt;div&gt;&lt;u&gt;,Date,Int,Date,Int)&lt;/u&gt;&lt;/div&gt;&lt;/div&gt;&lt;/div&gt;" style="text;strokeColor=none;fillColor=none;align=left;verticalAlign=top;spacingLeft=4;spacingRight=4;overflow=hidden;rotatable=0;points=[[0,0.5],[1,0.5]];portConstraint=eastwest;whiteSpace=wrap;html=1;" vertex="1" parent="Wj1_WBslv_tGjD_dMFTz-13">
          <mxGeometry y="70" width="160" height="70" as="geometry" />
        </mxCell>
        <mxCell id="Wj1_WBslv_tGjD_dMFTz-17" value="EmpleadoPermanente" style="swimlane;fontStyle=1;align=center;verticalAlign=top;childLayout=stackLayout;horizontal=1;startSize=26;horizontalStack=0;resizeParent=1;resizeParentMax=0;resizeLast=0;collapsible=1;marginBottom=0;whiteSpace=wrap;html=1;" vertex="1" parent="1">
          <mxGeometry x="420" y="330" width="160" height="140" as="geometry" />
        </mxCell>
        <mxCell id="Wj1_WBslv_tGjD_dMFTz-18" value="&lt;div&gt;- cantDeHijos: Int&lt;/div&gt;&lt;div&gt;- antiguedad: Int&lt;/div&gt;" style="text;strokeColor=none;fillColor=none;align=left;verticalAlign=top;spacingLeft=4;spacingRight=4;overflow=hidden;rotatable=0;points=[[0,0.5],[1,0.5]];portConstraint=eastwest;whiteSpace=wrap;html=1;" vertex="1" parent="Wj1_WBslv_tGjD_dMFTz-17">
          <mxGeometry y="26" width="160" height="34" as="geometry" />
        </mxCell>
        <mxCell id="Wj1_WBslv_tGjD_dMFTz-19" value="" style="line;strokeWidth=1;fillColor=none;align=left;verticalAlign=middle;spacingTop=-1;spacingLeft=3;spacingRight=3;rotatable=0;labelPosition=right;points=[];portConstraint=eastwest;strokeColor=inherit;" vertex="1" parent="Wj1_WBslv_tGjD_dMFTz-17">
          <mxGeometry y="60" width="160" height="10" as="geometry" />
        </mxCell>
        <mxCell id="Wj1_WBslv_tGjD_dMFTz-20" value="&lt;div&gt;+ sueldoBruto(): Int&lt;/div&gt;&lt;div&gt;+ retenciones(): Int&lt;/div&gt;&lt;div&gt;&lt;div&gt;&lt;div&gt; &lt;u&gt;new(String,String,String&lt;/u&gt;&lt;/div&gt;&lt;div&gt;&lt;u&gt;,Date,Int,Int,Int)&lt;/u&gt;&lt;/div&gt;&lt;br&gt;&lt;/div&gt;&lt;/div&gt;" style="text;strokeColor=none;fillColor=none;align=left;verticalAlign=top;spacingLeft=4;spacingRight=4;overflow=hidden;rotatable=0;points=[[0,0.5],[1,0.5]];portConstraint=eastwest;whiteSpace=wrap;html=1;" vertex="1" parent="Wj1_WBslv_tGjD_dMFTz-17">
          <mxGeometry y="70" width="160" height="70" as="geometry" />
        </mxCell>
        <mxCell id="Wj1_WBslv_tGjD_dMFTz-21" value="" style="endArrow=block;endSize=16;endFill=0;html=1;rounded=0;entryX=0.5;entryY=1;entryDx=0;entryDy=0;" edge="1" parent="1" target="Wj1_WBslv_tGjD_dMFTz-5">
          <mxGeometry width="160" relative="1" as="geometry">
            <mxPoint x="400" y="300" as="sourcePoint" />
            <mxPoint x="650" y="280" as="targetPoint" />
          </mxGeometry>
        </mxCell>
        <mxCell id="Wj1_WBslv_tGjD_dMFTz-22" value="" style="endArrow=none;html=1;edgeStyle=orthogonalEdgeStyle;rounded=0;entryX=0.5;entryY=0;entryDx=0;entryDy=0;" edge="1" parent="1" target="Wj1_WBslv_tGjD_dMFTz-17">
          <mxGeometry relative="1" as="geometry">
            <mxPoint x="400" y="300" as="sourcePoint" />
            <mxPoint x="574" y="310" as="targetPoint" />
          </mxGeometry>
        </mxCell>
        <mxCell id="Wj1_WBslv_tGjD_dMFTz-29" value="" style="endArrow=none;html=1;edgeStyle=orthogonalEdgeStyle;rounded=0;exitX=0.5;exitY=0;exitDx=0;exitDy=0;" edge="1" parent="1" source="Wj1_WBslv_tGjD_dMFTz-13">
          <mxGeometry relative="1" as="geometry">
            <mxPoint x="180" y="290" as="sourcePoint" />
            <mxPoint x="400" y="300" as="targetPoint" />
            <Array as="points">
              <mxPoint x="300" y="300" />
            </Array>
          </mxGeometry>
        </mxCell>
        <mxCell id="Wj1_WBslv_tGjD_dMFTz-32" value="empleados *" style="html=1;verticalAlign=bottom;endArrow=block;curved=0;rounded=0;entryX=0;entryY=0.5;entryDx=0;entryDy=0;exitX=1;exitY=0.5;exitDx=0;exitDy=0;" edge="1" parent="1" source="Wj1_WBslv_tGjD_dMFTz-4" target="Wj1_WBslv_tGjD_dMFTz-6">
          <mxGeometry x="-0.1975" width="80" relative="1" as="geometry">
            <mxPoint x="220" y="140" as="sourcePoint" />
            <mxPoint x="570" y="220" as="targetPoint" />
            <Array as="points">
              <mxPoint x="250" y="145" />
              <mxPoint x="250" y="103" />
            </Array>
            <mxPoint as="offset" />
          </mxGeometry>
        </mxCell>
        <mxCell id="Wj1_WBslv_tGjD_dMFTz-33" value="Recibo" style="swimlane;fontStyle=1;align=center;verticalAlign=top;childLayout=stackLayout;horizontal=1;startSize=26;horizontalStack=0;resizeParent=1;resizeParentMax=0;resizeLast=0;collapsible=1;marginBottom=0;whiteSpace=wrap;html=1;" vertex="1" parent="1">
          <mxGeometry x="40" y="530" width="160" height="150" as="geometry" />
        </mxCell>
        <mxCell id="Wj1_WBslv_tGjD_dMFTz-34" value="&lt;div&gt;- nombreEmp: String&lt;/div&gt;&lt;div&gt;- direccion: String&lt;/div&gt;&lt;div&gt;- fechaEmision: Date&lt;/div&gt;&lt;div&gt;- sueldoBruto: Int&lt;/div&gt;&lt;div&gt;- sueldoNeto: Int&lt;/div&gt;" style="text;strokeColor=none;fillColor=none;align=left;verticalAlign=top;spacingLeft=4;spacingRight=4;overflow=hidden;rotatable=0;points=[[0,0.5],[1,0.5]];portConstraint=eastwest;whiteSpace=wrap;html=1;" vertex="1" parent="Wj1_WBslv_tGjD_dMFTz-33">
          <mxGeometry y="26" width="160" height="74" as="geometry" />
        </mxCell>
        <mxCell id="Wj1_WBslv_tGjD_dMFTz-35" value="" style="line;strokeWidth=1;fillColor=none;align=left;verticalAlign=middle;spacingTop=-1;spacingLeft=3;spacingRight=3;rotatable=0;labelPosition=right;points=[];portConstraint=eastwest;strokeColor=inherit;" vertex="1" parent="Wj1_WBslv_tGjD_dMFTz-33">
          <mxGeometry y="100" width="160" height="10" as="geometry" />
        </mxCell>
        <mxCell id="Wj1_WBslv_tGjD_dMFTz-36" value="&lt;div&gt;+ &lt;u&gt;new(String,String,Date&lt;/u&gt;&lt;u&gt;,&lt;/u&gt;&lt;/div&gt;&lt;div&gt;&lt;u&gt;Int,Int)&lt;/u&gt;&lt;/div&gt;" style="text;strokeColor=none;fillColor=none;align=left;verticalAlign=top;spacingLeft=4;spacingRight=4;overflow=hidden;rotatable=0;points=[[0,0.5],[1,0.5]];portConstraint=eastwest;whiteSpace=wrap;html=1;" vertex="1" parent="Wj1_WBslv_tGjD_dMFTz-33">
          <mxGeometry y="110" width="160" height="40" as="geometry" />
        </mxCell>
        <mxCell id="Wj1_WBslv_tGjD_dMFTz-37" value="recibos *" style="html=1;verticalAlign=bottom;endArrow=block;curved=0;rounded=0;entryX=0.5;entryY=0;entryDx=0;entryDy=0;exitX=0.494;exitY=1.011;exitDx=0;exitDy=0;exitPerimeter=0;" edge="1" parent="1" source="Wj1_WBslv_tGjD_dMFTz-4" target="Wj1_WBslv_tGjD_dMFTz-33">
          <mxGeometry width="80" relative="1" as="geometry">
            <mxPoint x="70" y="327" as="sourcePoint" />
            <mxPoint x="190" y="290" as="targetPoint" />
            <Array as="points">
              <mxPoint x="120" y="327" />
              <mxPoint x="120" y="290" />
            </Array>
          </mxGeometry>
        </mxCell>
        <mxCell id="Wj1_WBslv_tGjD_dMFTz-38" value="EmpleadoContratado" style="swimlane;fontStyle=1;align=center;verticalAlign=top;childLayout=stackLayout;horizontal=1;startSize=26;horizontalStack=0;resizeParent=1;resizeParentMax=0;resizeLast=0;collapsible=1;marginBottom=0;whiteSpace=wrap;html=1;" vertex="1" parent="1">
          <mxGeometry x="620" y="330" width="160" height="140" as="geometry" />
        </mxCell>
        <mxCell id="Wj1_WBslv_tGjD_dMFTz-39" value="&lt;div&gt;- nroContrato: Int&lt;/div&gt;&lt;div&gt;- medioPago: String&lt;/div&gt;" style="text;strokeColor=none;fillColor=none;align=left;verticalAlign=top;spacingLeft=4;spacingRight=4;overflow=hidden;rotatable=0;points=[[0,0.5],[1,0.5]];portConstraint=eastwest;whiteSpace=wrap;html=1;" vertex="1" parent="Wj1_WBslv_tGjD_dMFTz-38">
          <mxGeometry y="26" width="160" height="34" as="geometry" />
        </mxCell>
        <mxCell id="Wj1_WBslv_tGjD_dMFTz-40" value="" style="line;strokeWidth=1;fillColor=none;align=left;verticalAlign=middle;spacingTop=-1;spacingLeft=3;spacingRight=3;rotatable=0;labelPosition=right;points=[];portConstraint=eastwest;strokeColor=inherit;" vertex="1" parent="Wj1_WBslv_tGjD_dMFTz-38">
          <mxGeometry y="60" width="160" height="10" as="geometry" />
        </mxCell>
        <mxCell id="Wj1_WBslv_tGjD_dMFTz-41" value="&lt;div&gt;+ sueldoBruto(): Int&lt;/div&gt;&lt;div&gt;+ retenciones(): Int&lt;div&gt;&lt;div&gt; &lt;u&gt;new(String,String,String&lt;/u&gt;&lt;/div&gt;&lt;div&gt;&lt;u&gt;,Date,Int,Int,String)&lt;/u&gt;&lt;/div&gt;&lt;br&gt;&lt;/div&gt;&lt;/div&gt;" style="text;strokeColor=none;fillColor=none;align=left;verticalAlign=top;spacingLeft=4;spacingRight=4;overflow=hidden;rotatable=0;points=[[0,0.5],[1,0.5]];portConstraint=eastwest;whiteSpace=wrap;html=1;" vertex="1" parent="Wj1_WBslv_tGjD_dMFTz-38">
          <mxGeometry y="70" width="160" height="70" as="geometry" />
        </mxCell>
        <mxCell id="Wj1_WBslv_tGjD_dMFTz-42" value="" style="endArrow=none;html=1;edgeStyle=orthogonalEdgeStyle;rounded=0;entryX=0.5;entryY=0;entryDx=0;entryDy=0;" edge="1" parent="1" target="Wj1_WBslv_tGjD_dMFTz-38">
          <mxGeometry relative="1" as="geometry">
            <mxPoint x="400" y="280" as="sourcePoint" />
            <mxPoint x="750" y="320" as="targetPoint" />
            <Array as="points">
              <mxPoint x="700" y="300" />
            </Array>
          </mxGeometry>
        </mxCell>
        <mxCell id="Wj1_WBslv_tGjD_dMFTz-43" value="Concepto" style="swimlane;fontStyle=1;align=center;verticalAlign=top;childLayout=stackLayout;horizontal=1;startSize=26;horizontalStack=0;resizeParent=1;resizeParentMax=0;resizeLast=0;collapsible=1;marginBottom=0;whiteSpace=wrap;html=1;" vertex="1" parent="1">
          <mxGeometry x="360" y="550" width="160" height="100" as="geometry" />
        </mxCell>
        <mxCell id="Wj1_WBslv_tGjD_dMFTz-44" value="&lt;div&gt;- descripcion: String&lt;/div&gt;&lt;div&gt;- monto: Int&lt;/div&gt;" style="text;strokeColor=none;fillColor=none;align=left;verticalAlign=top;spacingLeft=4;spacingRight=4;overflow=hidden;rotatable=0;points=[[0,0.5],[1,0.5]];portConstraint=eastwest;whiteSpace=wrap;html=1;" vertex="1" parent="Wj1_WBslv_tGjD_dMFTz-43">
          <mxGeometry y="26" width="160" height="34" as="geometry" />
        </mxCell>
        <mxCell id="Wj1_WBslv_tGjD_dMFTz-45" value="" style="line;strokeWidth=1;fillColor=none;align=left;verticalAlign=middle;spacingTop=-1;spacingLeft=3;spacingRight=3;rotatable=0;labelPosition=right;points=[];portConstraint=eastwest;strokeColor=inherit;" vertex="1" parent="Wj1_WBslv_tGjD_dMFTz-43">
          <mxGeometry y="60" width="160" height="10" as="geometry" />
        </mxCell>
        <mxCell id="Wj1_WBslv_tGjD_dMFTz-46" value="+ &lt;u&gt;new(String,Int)&lt;/u&gt;" style="text;strokeColor=none;fillColor=none;align=left;verticalAlign=top;spacingLeft=4;spacingRight=4;overflow=hidden;rotatable=0;points=[[0,0.5],[1,0.5]];portConstraint=eastwest;whiteSpace=wrap;html=1;" vertex="1" parent="Wj1_WBslv_tGjD_dMFTz-43">
          <mxGeometry y="70" width="160" height="30" as="geometry" />
        </mxCell>
        <mxCell id="Wj1_WBslv_tGjD_dMFTz-47" value="desgloceConceptos *" style="html=1;verticalAlign=bottom;endArrow=block;curved=0;rounded=0;entryX=0;entryY=0.5;entryDx=0;entryDy=0;exitX=1;exitY=0.5;exitDx=0;exitDy=0;" edge="1" parent="1" source="Wj1_WBslv_tGjD_dMFTz-34" target="Wj1_WBslv_tGjD_dMFTz-44">
          <mxGeometry width="80" relative="1" as="geometry">
            <mxPoint x="230" y="626" as="sourcePoint" />
            <mxPoint x="350" y="584" as="targetPoint" />
            <Array as="points">
              <mxPoint x="280" y="593" />
            </Array>
            <mxPoint as="offset" />
          </mxGeometry>
        </mxCell>
      </root>
    </mxGraphModel>
  </diagram>
</mxfile>
